<svg width="1312" height="232" viewBox="0 0 1312 232" fill="none" xmlns="http://www.w3.org/2000/svg">
<mask id="mask0_83_2" style="mask-type:luminance" maskUnits="userSpaceOnUse" x="0" y="0" width="295" height="232">
<path d="M0 0H294.053V232H0V0Z" fill="white"/>
</mask>
<g mask="url(#mask0_83_2)">
<path d="M134.581 200.525C135.045 201.009 135.46 201.535 135.821 202.096C136.183 202.658 136.485 203.249 136.731 203.868C136.978 204.484 137.16 205.118 137.283 205.771C137.404 206.423 137.46 207.078 137.452 207.741C137.446 208.404 137.374 209.059 137.238 209.706C137.101 210.356 136.903 210.985 136.643 211.599C136.383 212.213 136.067 212.795 135.693 213.349C135.318 213.904 134.895 214.419 134.418 214.895C130.916 218.634 127.21 222.176 123.304 225.522C121.421 226.811 119.397 227.834 117.226 228.593C116.669 228.639 116.109 228.647 115.549 228.613C114.993 228.582 114.438 228.51 113.889 228.398C113.34 228.287 112.805 228.139 112.28 227.95C111.753 227.764 111.247 227.541 110.754 227.28C110.261 227.021 109.793 226.728 109.346 226.402C108.898 226.076 108.478 225.721 108.084 225.335C107.691 224.949 107.329 224.538 107 224.1C106.668 223.663 106.374 223.204 106.111 222.725C105.851 222.308 105.626 221.873 105.439 221.42C105.249 220.97 105.096 220.504 104.981 220.03C104.866 219.553 104.791 219.074 104.754 218.588C104.716 218.101 104.719 217.614 104.759 217.127C104.802 216.64 104.879 216.161 105 215.688C105.118 215.214 105.273 214.75 105.466 214.3C105.661 213.849 105.889 213.414 106.151 213C106.414 212.583 106.711 212.189 107.038 211.817C110.998 207.373 115.274 203.228 119.858 199.383C120.38 198.953 120.939 198.575 121.539 198.251C122.136 197.928 122.763 197.664 123.416 197.459C124.067 197.254 124.736 197.115 125.416 197.037C126.096 196.959 126.779 196.946 127.465 197.001C128.147 197.053 128.819 197.169 129.481 197.35C130.139 197.532 130.774 197.775 131.384 198.075C131.995 198.378 132.571 198.736 133.109 199.147C133.644 199.559 134.137 200.017 134.581 200.525ZM63.5275 132.965C63.0589 131.994 62.4618 131.103 61.7389 130.293C61.0133 129.483 60.1886 128.783 59.2622 128.196C58.3357 127.61 57.3424 127.155 56.2874 126.836C55.2298 126.518 54.148 126.342 53.0395 126.316C50.6806 127.093 48.469 128.152 46.3992 129.493C42.3053 132.988 38.4389 136.707 34.8028 140.645C34.5618 140.888 34.3316 141.142 34.1147 141.406C33.8978 141.673 33.6943 141.947 33.5069 142.232C33.3168 142.517 33.1454 142.81 32.9874 143.113C32.8268 143.413 32.6849 143.721 32.559 144.037C32.4332 144.353 32.3234 144.674 32.2297 145C32.136 145.324 32.061 145.655 32.0021 145.987C31.9405 146.321 31.9004 146.657 31.8763 146.994C31.8495 147.33 31.8441 147.667 31.8522 148.006C31.8629 148.345 31.8896 148.682 31.9352 149.016C31.9807 149.353 32.0423 149.684 32.1226 150.013C32.2002 150.342 32.2966 150.668 32.4091 150.987C32.5215 151.308 32.6501 151.621 32.7973 151.929C32.9419 152.237 33.1026 152.538 33.2766 152.828C33.4533 153.12 33.6434 153.405 33.8496 153.677C34.0558 153.951 34.2727 154.215 34.5056 154.467C34.7385 154.72 34.9822 154.961 35.2419 155.189C35.7212 155.663 36.246 156.087 36.8136 156.463C37.3786 156.836 37.9757 157.157 38.6076 157.421C39.2368 157.682 39.8875 157.887 40.5568 158.029C41.2289 158.172 41.9063 158.249 42.5918 158.265C43.2772 158.283 43.96 158.234 44.6374 158.123C45.3122 158.011 45.9735 157.838 46.6134 157.605C47.2561 157.369 47.8692 157.079 48.4529 156.73C49.0393 156.38 49.5828 155.981 50.0862 155.531C54.2257 151.914 58.1644 148.099 61.8995 144.089C62.2637 143.729 62.5957 143.346 62.8956 142.934C63.1955 142.525 63.4605 142.095 63.6908 141.644C63.9211 141.194 64.1112 140.728 64.2638 140.246C64.4191 139.767 64.5316 139.278 64.6039 138.781C64.6761 138.284 64.7083 137.784 64.6976 137.281C64.6895 136.779 64.6387 136.279 64.5476 135.785C64.4566 135.29 64.3254 134.806 64.154 134.332C63.9827 133.856 63.7738 133.398 63.5275 132.957V132.965ZM85.3976 153.063C84.8836 152.607 84.3293 152.201 83.7322 151.846C83.1378 151.489 82.5139 151.191 81.8606 150.95C81.2073 150.709 80.5379 150.528 79.8498 150.409C79.1616 150.29 78.4682 150.233 77.7667 150.241C77.0678 150.249 76.377 150.321 75.6916 150.453C75.0061 150.588 74.3394 150.782 73.6914 151.038C73.0435 151.295 72.4276 151.605 71.8412 151.973C71.2549 152.343 70.7086 152.76 70.2026 153.229C66.3496 156.621 62.6921 160.204 59.2354 163.977C57.9635 165.686 56.9621 167.529 56.2285 169.51C56.1616 170.064 56.1401 170.621 56.1616 171.178C56.183 171.734 56.2499 172.286 56.3597 172.832C56.4695 173.379 56.6221 173.915 56.8176 174.44C57.013 174.963 57.2486 175.471 57.5244 175.96C57.8002 176.45 58.1108 176.916 58.4616 177.358C58.8123 177.801 59.1952 178.215 59.6102 178.601C60.0253 178.987 60.4697 179.339 60.941 179.66C61.4122 179.979 61.9076 180.264 62.4243 180.51C62.8929 180.756 63.3775 180.968 63.8809 181.141C64.3843 181.315 64.8984 181.449 65.4232 181.543C65.948 181.639 66.4781 181.695 67.011 181.711C67.5438 181.724 68.0766 181.701 68.6068 181.633C69.1369 181.569 69.6564 181.462 70.1705 181.317C70.6819 181.175 71.1799 180.991 71.6645 180.771C72.1465 180.551 72.6097 180.295 73.0488 180.005C73.4906 179.715 73.9083 179.394 74.2966 179.039C78.337 175.504 82.2355 171.804 85.9037 167.908C86.1527 167.659 86.391 167.4 86.6159 167.131C86.8382 166.859 87.047 166.579 87.2425 166.289C87.4379 165.997 87.6173 165.699 87.778 165.391C87.9413 165.08 88.0886 164.767 88.2198 164.443C88.3483 164.119 88.4608 163.791 88.5571 163.459C88.6535 163.125 88.7312 162.786 88.7928 162.444C88.8517 162.102 88.8945 161.761 88.9186 161.414C88.9427 161.069 88.9507 160.722 88.9374 160.378C88.9266 160.031 88.8972 159.687 88.849 159.342C88.8008 159 88.7365 158.659 88.6509 158.322C88.5679 157.985 88.4688 157.654 88.3483 157.325C88.2305 156.999 88.0966 156.678 87.944 156.364C87.794 156.051 87.6254 155.746 87.4406 155.448C87.2585 155.15 87.0604 154.863 86.8462 154.586C86.632 154.309 86.4044 154.039 86.1634 153.786C85.9198 153.529 85.6654 153.286 85.3976 153.055V153.063ZM113.292 185.691C112.864 179.932 110.971 176.478 106.631 174.593C106.138 174.36 105.629 174.168 105.104 174.013C104.58 173.858 104.047 173.744 103.503 173.671C102.96 173.596 102.413 173.565 101.865 173.575C101.316 173.586 100.772 173.638 100.231 173.731C99.693 173.827 99.1629 173.959 98.6461 174.135C98.1267 174.308 97.626 174.521 97.144 174.772C96.6594 175.023 96.1989 175.31 95.7624 175.631C95.326 175.952 94.919 176.307 94.5415 176.69C90.8893 179.945 87.3951 183.391 83.9705 186.859C83.7054 187.099 83.4537 187.353 83.2128 187.62C82.9745 187.886 82.7496 188.164 82.5407 188.451C82.3292 188.738 82.1364 189.036 81.957 189.342C81.7776 189.65 81.6143 189.963 81.467 190.287C81.3197 190.608 81.1885 190.937 81.0761 191.271C80.9636 191.607 80.8672 191.946 80.7896 192.291C80.7119 192.635 80.653 192.982 80.6102 193.332C80.57 193.681 80.5459 194.033 80.5406 194.386C80.5352 194.738 80.5459 195.09 80.5781 195.439C80.6075 195.792 80.6584 196.141 80.7253 196.485C80.7923 196.832 80.8753 197.174 80.9797 197.513C81.0814 197.85 81.1993 198.184 81.3358 198.51C81.4724 198.837 81.6277 199.155 81.7964 199.468C81.9677 199.779 82.1525 200.082 82.3533 200.375C82.5541 200.67 82.771 200.952 83.0012 201.226C83.2315 201.498 83.4752 201.76 83.7322 202.008C83.9919 202.257 84.2624 202.493 84.5462 202.715C84.83 202.938 85.1219 203.145 85.4271 203.339C85.7323 203.534 86.0456 203.712 86.3696 203.875C86.6909 204.038 87.0229 204.189 87.3603 204.321C87.6977 204.453 88.0431 204.569 88.3911 204.668C88.7419 204.766 89.0953 204.849 89.4541 204.914C89.8129 204.981 90.1744 205.028 90.5358 205.059C90.9 205.09 91.2641 205.103 91.6283 205.1C91.9924 205.095 92.3566 205.074 92.718 205.035C93.0822 204.996 93.441 204.939 93.7971 204.867C94.1559 204.794 94.5066 204.704 94.8547 204.595C95.2028 204.489 95.5429 204.367 95.8775 204.227C96.2122 204.088 96.5389 203.932 96.8575 203.761C97.1788 203.59 97.4867 203.404 97.7866 203.202C98.0865 203.003 98.3757 202.788 98.6542 202.56C98.9326 202.332 99.1977 202.091 99.4521 201.838C103.053 198.689 106.47 195.362 109.699 191.856C111.145 189.932 112.342 187.874 113.292 185.68V185.691ZM277.118 33.4925C274.933 30.4372 272.512 27.5708 269.848 24.8961C267.208 22.1437 264.365 19.601 261.323 17.2707C257.349 14.3033 253.073 11.8228 248.497 9.82905C242.323 7.03521 235.918 4.87574 229.286 3.35324C222.654 1.83074 215.931 0.973688 209.116 0.784671C202.184 0.950385 195.372 1.90583 188.676 3.64842C181.982 5.39101 175.593 7.87413 169.513 11.0952C159.726 16.7088 151.04 23.617 143.46 31.8224C131.998 42.9823 120.366 53.9867 108.925 65.1621C108.54 65.5065 108.175 65.8715 107.833 66.2573C107.49 66.6406 107.169 67.0419 106.872 67.4614C106.574 67.8808 106.304 68.3132 106.058 68.7612C105.809 69.2091 105.589 69.67 105.394 70.1413C105.201 70.6125 105.032 71.0941 104.893 71.5835C104.756 72.0729 104.644 72.57 104.563 73.0723C104.48 73.5721 104.427 74.077 104.403 74.5845C104.379 75.092 104.384 75.5995 104.419 76.107C104.454 76.6119 104.518 77.1168 104.609 77.6165C104.703 78.1163 104.823 78.6082 104.97 79.0976C105.12 79.5844 105.297 80.0608 105.501 80.5295C105.704 80.9982 105.934 81.4513 106.191 81.8966C106.448 82.3394 106.73 82.7666 107.035 83.1809C107.34 83.5926 107.669 83.9888 108.02 84.3668C108.371 84.7448 108.743 85.1022 109.137 85.4388C109.528 85.778 109.937 86.0913 110.366 86.3865C111.03 86.8577 111.729 87.2694 112.465 87.6215C113.201 87.9763 113.964 88.2637 114.754 88.4864C115.544 88.709 116.347 88.8644 117.164 88.9498C117.981 89.0353 118.8 89.0508 119.619 88.999C120.441 88.9447 121.25 88.823 122.048 88.6314C122.846 88.4398 123.62 88.1834 124.372 87.8598C125.122 87.5387 125.839 87.1529 126.519 86.7075C127.202 86.2648 127.837 85.765 128.428 85.2109C133.775 80.3508 160.768 54.9318 168.519 47.3918C209.218 86.3787 239.006 115.161 246.173 122.269C251.159 127.209 255.754 131.831 255.754 131.831C258.964 135.091 262.228 138.426 265.644 141.872C267.958 139.053 270.528 136.235 273.032 133.304C275.554 130.36 277.9 127.289 280.074 124.092C283.761 118.408 286.717 112.388 288.939 106.031C291.164 99.6747 292.594 93.1548 293.234 86.4745C293.464 82.8365 293.435 79.1986 293.145 75.5632C292.856 71.9279 292.307 68.3288 291.504 64.7685C290.698 61.2057 289.643 57.7153 288.337 54.2948C287.03 50.8744 285.488 47.5575 283.707 44.3442C281.755 40.5872 279.56 36.9699 277.118 33.4925ZM168.503 64.1108C157.255 74.6907 139.816 91.2155 135.465 94.9078C134.841 95.4101 134.196 95.884 133.526 96.3267C132.857 96.7721 132.166 97.1864 131.459 97.5696C130.75 97.9528 130.024 98.3049 129.283 98.6234C128.541 98.9419 127.786 99.2267 127.017 99.4805C126.249 99.7316 125.47 99.9491 124.68 100.13C123.89 100.314 123.092 100.462 122.289 100.573C121.486 100.684 120.677 100.762 119.868 100.801C119.057 100.842 118.246 100.848 117.434 100.814C116.623 100.783 115.815 100.716 115.011 100.612C114.205 100.508 113.407 100.369 112.615 100.195C111.825 100.022 111.043 99.8119 110.269 99.5685C109.498 99.3251 108.74 99.0455 107.993 98.7348C107.249 98.424 106.521 98.0797 105.806 97.7042C105.094 97.3288 104.4 96.9223 103.725 96.4847C103.053 96.0471 102.4 95.581 101.771 95.0839C101.142 94.5893 100.536 94.0663 99.9554 93.5173C99.3744 92.971 98.8202 92.3962 98.2927 91.7981C97.7652 91.1999 97.2699 90.5785 96.804 89.9364C96.3354 89.2942 95.9016 88.6314 95.4973 87.9504C95.0957 87.2668 94.7262 86.5703 94.3888 85.8531C94.0541 85.1384 93.7543 84.4108 93.4865 83.6677C93.2214 82.9246 92.9912 82.1737 92.7984 81.4098C92.6056 80.646 92.4476 79.877 92.3298 79.1002C92.2093 78.3234 92.129 77.5415 92.0835 76.7595C92.0406 75.9749 92.0326 75.1904 92.0647 74.4032C92.0942 73.6187 92.1638 72.8367 92.2709 72.0599C92.378 71.2806 92.5199 70.509 92.702 69.7425C92.8814 68.9761 93.0983 68.22 93.3526 67.4743C93.607 66.7286 93.8935 65.9932 94.2175 65.2734C94.5415 64.5536 94.9002 63.8493 95.2912 63.1606C95.6821 62.4744 96.1078 61.8038 96.563 61.1539C97.0182 60.504 97.5055 59.8773 98.0223 59.2689C101.452 55.328 105.351 51.7625 109.137 48.1039C118.535 38.9715 128 29.8649 137.666 20.5461C136.349 19.4016 134.996 18.2986 133.607 17.2422C132.217 16.1832 130.79 15.1707 129.331 14.2023C127.872 13.234 126.38 12.3148 124.859 11.4448C123.336 10.5722 121.785 9.74878 120.206 8.97717C118.629 8.20297 117.025 7.48056 115.397 6.80994C113.769 6.13931 112.12 5.52306 110.449 4.95601C108.778 4.39155 107.091 3.88146 105.385 3.42315C103.68 2.96485 101.961 2.56351 100.229 2.21655C98.4962 1.86699 96.7531 1.5744 95.002 1.33878C93.2482 1.10315 91.4917 0.921903 89.7246 0.800206C87.9601 0.675921 86.1929 0.608599 84.423 0.595653C82.6558 0.585295 80.886 0.631903 79.1215 0.732885C77.3543 0.833867 75.5925 0.991814 73.8387 1.20672C72.0822 1.42163 70.3365 1.69092 68.5987 2.01717C66.861 2.34342 65.1367 2.72405 63.4257 3.15905C61.7148 3.59663 60.0199 4.08601 58.3438 4.62976C24.4782 15.7585 4.84378 39.1449 0.854247 73.5954C0.511521 76.3582 0.329449 79.1287 0.30535 81.9096C0.278575 84.6931 0.412452 87.4662 0.704304 90.2341C0.993479 93.0021 1.44063 95.7441 2.04308 98.4629C2.64552 101.184 3.40059 103.864 4.30828 106.503C5.21596 109.141 6.27091 111.725 7.47313 114.252C8.67535 116.779 10.0168 119.234 11.4975 121.619C12.9782 124.004 14.59 126.303 16.3331 128.514C18.0762 130.728 19.9398 132.841 21.9238 134.855C27.4235 129.998 32.4733 125.417 37.633 120.984C37.9677 120.676 38.3077 120.379 38.6585 120.091C39.0119 119.806 39.3707 119.529 39.7375 119.263C40.107 118.996 40.4819 118.74 40.8674 118.496C41.2503 118.25 41.6413 118.017 42.0402 117.797C42.4392 117.574 42.8435 117.365 43.2558 117.165C43.6655 116.966 44.0832 116.779 44.5062 116.606C44.9293 116.433 45.3577 116.269 45.7914 116.119C46.2225 115.969 46.6616 115.834 47.1034 115.71C47.5426 115.586 47.9897 115.474 48.4369 115.374C48.884 115.275 49.3365 115.19 49.789 115.117C50.2442 115.045 50.6994 114.988 51.1572 114.941C51.6124 114.894 52.073 114.861 52.5308 114.843C52.9914 114.822 53.4492 114.817 53.9097 114.825C54.3703 114.83 54.8281 114.85 55.286 114.884C55.7465 114.918 56.2017 114.964 56.6596 115.024C57.1148 115.086 57.5673 115.159 58.0171 115.244C58.4696 115.329 58.9168 115.43 59.3612 115.542C59.8084 115.656 60.2475 115.78 60.6839 115.917C61.123 116.054 61.5541 116.205 61.9825 116.368C62.4109 116.531 62.834 116.707 63.249 116.893C63.6667 117.08 64.0791 117.279 64.4834 117.492C64.8877 117.701 65.2839 117.924 65.6749 118.157C66.0658 118.393 66.4514 118.639 66.8262 118.892C67.2011 119.149 67.5706 119.418 67.9294 119.695C68.2882 119.972 68.6389 120.259 68.979 120.557C69.3217 120.855 69.6537 121.163 69.975 121.479C70.299 121.798 70.6096 122.121 70.9121 122.458C71.2147 122.792 71.5066 123.136 71.7877 123.488C72.0688 123.84 72.3393 124.2 72.5963 124.568C72.856 124.936 73.1024 125.309 73.338 125.692C73.5736 126.072 73.7985 126.461 74.0074 126.857C74.2189 127.251 74.4197 127.652 74.6072 128.058C75.8977 131.324 76.8884 134.669 77.5792 138.1C92.1879 139.34 100.146 147.248 101.452 161.486C116.433 162.799 124.519 170.629 125.721 184.829C126.144 184.963 126.578 185.062 127.02 185.124C127.462 185.134 127.906 185.16 128.348 185.196C128.793 185.232 129.234 185.282 129.673 185.341C130.113 185.401 130.552 185.473 130.985 185.559C131.422 185.644 131.856 185.74 132.284 185.849C132.715 185.957 133.141 186.077 133.564 186.209C133.987 186.341 134.405 186.486 134.82 186.641C135.235 186.796 135.644 186.962 136.049 187.138C136.453 187.317 136.852 187.506 137.246 187.705C137.639 187.905 138.027 188.114 138.408 188.334C138.788 188.557 139.163 188.788 139.53 189.028C139.899 189.272 140.258 189.523 140.611 189.784C140.965 190.046 141.307 190.315 141.645 190.595C141.982 190.877 142.311 191.164 142.63 191.465C142.949 191.763 143.259 192.068 143.562 192.384C143.864 192.7 144.156 193.024 144.44 193.355C144.721 193.686 144.994 194.026 145.257 194.373C145.519 194.72 145.771 195.072 146.015 195.432C146.256 195.794 146.486 196.159 146.708 196.532C146.928 196.905 147.136 197.286 147.335 197.669C147.533 198.055 147.72 198.443 147.894 198.839C148.068 199.233 148.232 199.634 148.384 200.038C148.537 200.442 148.676 200.848 148.802 201.26C148.93 201.672 149.046 202.086 149.15 202.506C149.252 202.922 149.343 203.344 149.42 203.767C149.501 204.189 149.565 204.613 149.619 205.04C149.672 205.468 149.712 205.895 149.742 206.325C149.771 206.752 149.785 207.182 149.787 207.612C149.793 208.041 149.782 208.471 149.76 208.899C149.736 209.328 149.702 209.758 149.653 210.185C149.608 210.613 149.546 211.037 149.474 211.462C149.402 211.884 149.316 212.306 149.22 212.725C149.123 213.145 149.013 213.562 148.89 213.974C148.78 214.468 148.783 214.96 148.896 215.449C149.011 215.941 149.225 216.389 149.541 216.788C153.865 221.071 158.176 225.39 162.808 229.351C163.274 229.709 163.767 230.024 164.289 230.299C164.808 230.576 165.349 230.806 165.911 230.993C166.474 231.177 167.047 231.317 167.633 231.407C168.219 231.5 168.811 231.542 169.406 231.537C169.997 231.531 170.586 231.477 171.173 231.374C171.756 231.273 172.327 231.122 172.884 230.926C173.443 230.729 173.979 230.488 174.496 230.201C175.01 229.916 175.497 229.589 175.955 229.224C176.281 228.984 176.592 228.725 176.889 228.448C177.184 228.173 177.462 227.881 177.725 227.575C177.987 227.269 178.231 226.948 178.456 226.617C178.683 226.283 178.887 225.939 179.071 225.584C179.256 225.229 179.422 224.864 179.564 224.491C179.706 224.118 179.827 223.74 179.926 223.354C180.025 222.966 180.1 222.578 180.153 222.182C180.207 221.788 180.239 221.392 180.244 220.996C180.252 220.597 180.236 220.201 180.199 219.805C180.159 219.408 180.097 219.015 180.011 218.626C179.928 218.238 179.821 217.855 179.693 217.477C179.561 217.099 179.412 216.729 179.24 216.369C179.069 216.006 178.876 215.657 178.662 215.315C178.45 214.976 178.217 214.647 177.966 214.333C177.717 214.018 177.446 213.717 177.162 213.432C176.876 213.145 176.573 212.876 176.257 212.622C165.357 202.076 154.403 191.579 143.511 181.022C143.026 180.551 142.593 180.038 142.207 179.487L123.255 161.162C122.988 160.893 122.749 160.603 122.538 160.287C122.329 159.974 122.152 159.643 122.008 159.296C121.866 158.949 121.759 158.591 121.686 158.224C121.614 157.856 121.582 157.486 121.585 157.113C121.587 156.737 121.627 156.37 121.708 156.002C121.785 155.637 121.898 155.28 122.048 154.935C122.198 154.591 122.38 154.265 122.594 153.954C122.811 153.643 123.055 153.356 123.328 153.092C123.601 152.828 123.898 152.589 124.219 152.382C124.541 152.172 124.881 151.996 125.237 151.851C125.593 151.709 125.96 151.598 126.34 151.523C126.717 151.447 127.1 151.409 127.486 151.403C127.874 151.401 128.257 151.434 128.637 151.504C129.017 151.572 129.387 151.675 129.746 151.815C130.105 151.952 130.447 152.123 130.771 152.328C131.095 152.53 131.398 152.76 131.676 153.022L150.73 171.447C151.244 171.794 151.728 172.18 152.186 172.597C155.616 175.75 159.065 178.886 162.431 182.099C170.289 189.611 178.03 197.239 185.974 204.665C186.239 204.929 186.518 205.18 186.81 205.416C187.101 205.652 187.404 205.872 187.72 206.076C188.036 206.281 188.363 206.47 188.697 206.643C189.035 206.814 189.38 206.969 189.733 207.107C190.084 207.244 190.446 207.363 190.81 207.464C191.177 207.562 191.546 207.645 191.921 207.71C192.296 207.772 192.673 207.816 193.054 207.842C193.431 207.865 193.811 207.873 194.192 207.86C194.572 207.845 194.949 207.814 195.327 207.762C195.704 207.71 196.077 207.64 196.446 207.549C196.816 207.461 197.177 207.353 197.536 207.226C197.892 207.102 198.243 206.957 198.583 206.796C198.925 206.633 199.257 206.454 199.579 206.26C199.903 206.066 200.213 205.854 200.513 205.628C200.813 205.4 201.1 205.16 201.373 204.903C201.646 204.649 201.906 204.38 202.149 204.098C202.602 203.562 202.995 202.99 203.335 202.379C203.673 201.77 203.949 201.136 204.16 200.476C204.374 199.815 204.519 199.139 204.599 198.453C204.677 197.765 204.688 197.078 204.631 196.387C204.575 195.698 204.452 195.02 204.259 194.354C204.069 193.689 203.815 193.044 203.496 192.425C203.177 191.807 202.8 191.221 202.366 190.673C201.932 190.124 201.448 189.619 200.915 189.158C189.8 178.337 178.573 167.589 167.4 156.797C162.074 151.655 156.682 146.574 151.495 141.297C151.201 141.036 150.939 140.751 150.708 140.438C150.475 140.124 150.277 139.793 150.117 139.441C149.956 139.089 149.833 138.726 149.75 138.348C149.664 137.973 149.621 137.592 149.619 137.206C149.616 136.823 149.653 136.443 149.731 136.064C149.809 135.686 149.926 135.321 150.082 134.967C150.237 134.612 150.43 134.278 150.657 133.962C150.885 133.646 151.142 133.356 151.431 133.089C151.712 132.82 152.015 132.577 152.344 132.362C152.674 132.147 153.022 131.963 153.386 131.815C153.753 131.665 154.127 131.549 154.516 131.471C154.904 131.391 155.298 131.347 155.694 131.342C156.09 131.336 156.484 131.365 156.875 131.432C157.266 131.5 157.646 131.603 158.015 131.743C158.387 131.88 158.738 132.051 159.076 132.256C159.41 132.46 159.724 132.693 160.013 132.957C160.757 133.555 161.461 134.195 162.125 134.876C177.96 150.119 193.75 165.401 209.67 180.556C211.408 182.213 213.451 183.366 215.799 184.01C216.362 184.148 216.932 184.241 217.51 184.287C218.086 184.337 218.664 184.337 219.243 184.293C219.821 184.249 220.391 184.158 220.954 184.021C221.516 183.886 222.062 183.705 222.595 183.482C223.128 183.259 223.636 182.995 224.124 182.69C224.608 182.387 225.066 182.045 225.495 181.667C225.923 181.289 226.317 180.88 226.675 180.44C227.034 179.999 227.353 179.533 227.634 179.044C227.926 178.544 228.175 178.026 228.381 177.488C228.587 176.949 228.745 176.398 228.858 175.836C228.97 175.271 229.034 174.702 229.05 174.13C229.067 173.555 229.034 172.985 228.954 172.415C228.874 171.848 228.748 171.289 228.571 170.74C228.397 170.191 228.178 169.66 227.913 169.148C227.647 168.635 227.342 168.146 226.994 167.68C226.649 167.214 226.263 166.779 225.843 166.375C213.714 154.534 201.477 142.784 189.281 131.002C184.914 126.779 180.44 122.618 176.145 118.307C175.832 118.048 175.548 117.761 175.293 117.445C175.039 117.129 174.82 116.792 174.635 116.433C174.45 116.075 174.303 115.702 174.196 115.317C174.089 114.931 174.024 114.537 173.998 114.138C173.971 113.74 173.987 113.341 174.046 112.945C174.102 112.549 174.198 112.16 174.338 111.785C174.474 111.407 174.648 111.047 174.86 110.702C175.074 110.358 175.318 110.04 175.596 109.744C175.899 109.452 176.228 109.193 176.584 108.962C176.94 108.735 177.315 108.543 177.711 108.388C178.108 108.23 178.515 108.113 178.935 108.035C179.353 107.958 179.778 107.922 180.204 107.927C180.632 107.929 181.053 107.973 181.473 108.059C181.891 108.144 182.295 108.269 182.686 108.432C183.08 108.595 183.452 108.794 183.803 109.03C184.153 109.265 184.477 109.532 184.775 109.827C185.324 110.286 185.8 110.829 186.314 111.326C202.045 126.494 217.786 141.66 233.541 156.818C233.916 157.24 234.323 157.631 234.759 157.996C235.193 158.361 235.653 158.695 236.138 158.995C236.623 159.298 237.126 159.562 237.651 159.795C238.176 160.026 238.714 160.217 239.268 160.375C239.82 160.531 240.382 160.647 240.952 160.725C241.522 160.803 242.098 160.841 242.674 160.839C243.249 160.836 243.822 160.795 244.393 160.714C244.963 160.632 245.523 160.513 246.074 160.352L246.385 160.248C246.829 160.075 247.258 159.876 247.675 159.648C248.09 159.422 248.489 159.169 248.872 158.892C249.255 158.615 249.617 158.314 249.959 157.993C250.302 157.669 250.623 157.328 250.921 156.965C251.215 156.603 251.488 156.225 251.735 155.826C251.978 155.43 252.198 155.021 252.388 154.596C252.581 154.174 252.741 153.739 252.875 153.296C253.009 152.851 253.111 152.4 253.183 151.945C253.255 151.486 253.298 151.028 253.309 150.564C253.32 150.104 253.301 149.643 253.25 149.182C253.199 148.724 253.119 148.268 253.009 147.82C252.897 147.369 252.757 146.929 252.586 146.497C252.415 146.064 252.217 145.645 251.992 145.238C251.764 144.832 251.512 144.438 251.234 144.063C250.955 143.687 250.653 143.333 250.326 142.993C250 142.657 249.651 142.341 249.282 142.046C231.468 124.806 191.252 85.9825 168.503 64.1108Z" fill="white"/>
</g>
<path d="M382.381 109.672V176.077H343.366V10.5797H382.381V76.5838H437.57V10.5797H476.556V176.077H437.57V109.672H382.381Z" fill="white"/>
<path d="M609.13 129.525H531.959C531.959 136.744 534.373 142.101 539.217 145.596C544.053 149.077 549.304 150.81 554.977 150.81C560.916 150.81 565.619 150.051 569.078 148.518C572.529 146.971 576.469 143.92 580.898 139.351L607.471 152.214C596.391 170.133 577.995 179.085 552.281 179.085C536.24 179.085 522.479 173.778 510.985 163.157C499.506 152.522 493.773 139.716 493.773 124.741C493.773 109.751 499.506 96.9094 510.985 86.2095C522.479 75.4953 536.24 70.1382 552.281 70.1382C569.145 70.1382 582.868 74.8579 593.459 84.2901C604.042 93.7295 609.337 107.201 609.337 124.712C609.337 127.118 609.263 128.723 609.13 129.525ZM532.996 109.872H573.433C572.603 104.53 570.418 100.419 566.886 97.554C563.368 94.6749 558.843 93.2282 553.318 93.2282C547.23 93.2282 542.394 94.768 538.802 97.8404C535.203 100.92 533.27 104.931 532.996 109.872Z" fill="white"/>
<path d="M626.542 176.077V3.53259H663.276V176.077H626.542Z" fill="white"/>
<path d="M797.706 85.8944C807.66 96.4009 812.637 109.285 812.637 124.54C812.637 139.781 807.66 152.686 797.706 163.243C787.753 173.807 775.088 179.085 759.728 179.085C745.627 179.085 734.015 174.809 724.89 166.251V228.244H688.156V73.1462H724.476V84.8058H724.89C734.015 75.0298 745.627 70.1382 759.728 70.1382C775.088 70.1382 787.753 75.395 797.706 85.8944ZM766.453 141.986C771.23 137.424 773.622 131.602 773.622 124.511C773.622 117.428 771.341 111.649 766.779 107.18C762.217 102.696 756.203 100.447 748.738 100.447C741.547 100.447 735.629 102.725 730.993 107.266C726.372 111.813 724.061 117.564 724.061 124.511C724.061 131.602 726.438 137.424 731.2 141.986C735.977 146.534 741.821 148.805 748.738 148.805C755.788 148.805 761.691 146.534 766.453 141.986Z" fill="white"/>
<path d="M925.498 10.5797V142.989H984.421V176.077H886.483V10.5797H925.498Z" fill="white"/>
<path d="M1007.22 15.7934C1011.5 11.6539 1016.62 9.5769 1022.57 9.5769C1028.53 9.5769 1033.65 11.6539 1037.94 15.7934C1042.22 19.9402 1044.37 24.8891 1044.37 30.6329C1044.37 36.3839 1042.22 41.3328 1037.94 45.4724C1033.65 49.6191 1028.53 51.6889 1022.57 51.6889C1016.62 51.6889 1011.5 49.6191 1007.22 45.4724C1002.93 41.3328 1000.79 36.3839 1000.79 30.6329C1000.79 24.8891 1002.93 19.9402 1007.22 15.7934ZM1003.7 73.146V176.077H1040.43V73.146H1003.7Z" fill="white"/>
<path d="M1066.35 176.077V73.1462H1103.08V84.0036H1103.5C1113.04 74.7648 1123.2 70.1382 1133.98 70.1382C1139.23 70.1382 1144.44 70.8114 1149.62 72.1435C1154.81 73.4828 1159.8 75.5669 1164.58 78.3887C1169.36 81.1962 1173.23 85.1782 1176.19 90.3348C1179.17 95.477 1180.67 101.45 1180.67 108.268V176.077H1143.93V117.894C1143.93 112.551 1142.16 107.867 1138.63 103.856C1135.11 99.8458 1130.52 97.8404 1124.86 97.8404C1119.32 97.8404 1114.31 99.9174 1109.81 104.057C1105.32 108.204 1103.08 112.816 1103.08 117.894V176.077H1066.35Z" fill="white"/>
<path d="M1311.16 129.525H1233.99C1233.99 136.744 1236.4 142.101 1241.25 145.596C1246.08 149.077 1251.33 150.81 1257.01 150.81C1262.95 150.81 1267.65 150.051 1271.11 148.518C1274.56 146.971 1278.5 143.92 1282.93 139.351L1309.5 152.214C1298.42 170.133 1280.02 179.085 1254.31 179.085C1238.27 179.085 1224.51 173.778 1213.01 163.157C1201.54 152.522 1195.8 139.716 1195.8 124.741C1195.8 109.751 1201.54 96.9094 1213.01 86.2095C1224.51 75.4953 1238.27 70.1382 1254.31 70.1382C1271.17 70.1382 1284.9 74.8579 1295.49 84.2901C1306.07 93.7295 1311.37 107.201 1311.37 124.712C1311.37 127.118 1311.29 128.723 1311.16 129.525ZM1235.03 109.872H1275.46C1274.63 104.53 1272.45 100.419 1268.92 97.554C1265.4 94.6749 1260.87 93.2282 1255.35 93.2282C1249.26 93.2282 1244.42 94.768 1240.83 97.8404C1237.23 100.92 1235.3 104.931 1235.03 109.872Z" fill="white"/>
</svg>
