<svg width="1436" height="263" viewBox="0 0 1436 263" fill="none" xmlns="http://www.w3.org/2000/svg">
<mask id="mask0_9_393" style="mask-type:luminance" maskUnits="userSpaceOnUse" x="0" y="0" width="322" height="263">
<path d="M0 0H322V262.709H0V0Z" fill="white"/>
</mask>
<g mask="url(#mask0_9_393)">
<path d="M147.372 227.067C147.879 227.615 148.334 228.211 148.729 228.847C149.125 229.483 149.457 230.152 149.726 230.852C149.996 231.55 150.195 232.269 150.33 233.007C150.462 233.746 150.524 234.488 150.515 235.239C150.509 235.989 150.43 236.731 150.281 237.464C150.131 238.2 149.914 238.913 149.63 239.607C149.345 240.302 148.999 240.962 148.589 241.589C148.178 242.217 147.715 242.8 147.193 243.34C143.358 247.574 139.3 251.585 135.022 255.373C132.961 256.833 130.744 257.991 128.367 258.85C127.757 258.903 127.144 258.912 126.531 258.874C125.921 258.839 125.314 258.756 124.713 258.63C124.112 258.504 123.526 258.337 122.951 258.123C122.374 257.912 121.819 257.66 121.28 257.364C120.74 257.07 120.227 256.739 119.738 256.37C119.248 256 118.788 255.599 118.357 255.162C117.926 254.725 117.53 254.259 117.169 253.763C116.806 253.268 116.483 252.749 116.196 252.206C115.911 251.734 115.665 251.242 115.46 250.729C115.252 250.218 115.085 249.691 114.959 249.154C114.832 248.615 114.75 248.072 114.709 247.521C114.668 246.97 114.671 246.418 114.715 245.867C114.762 245.316 114.847 244.774 114.979 244.237C115.108 243.701 115.278 243.176 115.489 242.665C115.703 242.155 115.952 241.663 116.24 241.194C116.527 240.722 116.853 240.276 117.21 239.854C121.547 234.822 126.229 230.128 131.249 225.774C131.821 225.287 132.433 224.859 133.09 224.493C133.744 224.126 134.43 223.827 135.145 223.596C135.858 223.364 136.591 223.206 137.336 223.118C138.08 223.03 138.828 223.015 139.579 223.077C140.326 223.135 141.062 223.267 141.786 223.473C142.508 223.678 143.203 223.953 143.871 224.293C144.54 224.637 145.17 225.041 145.759 225.507C146.346 225.974 146.885 226.492 147.372 227.067ZM69.565 150.565C69.0519 149.465 68.3981 148.457 67.6064 147.539C66.8119 146.621 65.9088 145.83 64.8943 145.164C63.8798 144.502 62.7921 143.986 61.6368 143.625C60.4787 143.264 59.2942 143.065 58.0803 143.036C55.4972 143.915 53.0754 145.114 50.8089 146.633C46.3259 150.591 42.092 154.802 38.1103 159.261C37.8465 159.537 37.5943 159.824 37.3568 160.123C37.1193 160.425 36.8965 160.736 36.6912 161.059C36.4831 161.381 36.2954 161.713 36.1224 162.056C35.9465 162.396 35.7911 162.745 35.6533 163.102C35.5155 163.46 35.3953 163.824 35.2927 164.193C35.1901 164.559 35.108 164.935 35.0435 165.31C34.976 165.688 34.932 166.069 34.9056 166.451C34.8763 166.832 34.8705 167.213 34.8793 167.597C34.891 167.981 34.9203 168.362 34.9702 168.741C35.02 169.122 35.0874 169.497 35.1754 169.869C35.2604 170.242 35.366 170.611 35.4891 170.972C35.6123 171.335 35.753 171.69 35.9143 172.039C36.0726 172.388 36.2485 172.728 36.4391 173.056C36.6326 173.388 36.8408 173.71 37.0665 174.018C37.2923 174.329 37.5298 174.628 37.7849 174.912C38.04 175.2 38.3068 175.472 38.5912 175.73C39.116 176.267 39.6907 176.748 40.3123 177.173C40.9309 177.595 41.5848 177.959 42.2767 178.258C42.9658 178.554 43.6782 178.786 44.4112 178.947C45.1472 179.108 45.889 179.196 46.6396 179.214C47.3902 179.234 48.1378 179.179 48.8796 179.052C49.6185 178.926 50.3427 178.73 51.0435 178.466C51.7472 178.199 52.4186 177.871 53.0578 177.475C53.6999 177.079 54.2951 176.628 54.8463 176.118C59.3792 172.021 63.6922 167.703 67.7824 163.161C68.1811 162.753 68.5447 162.319 68.8731 161.853C69.2015 161.39 69.4917 160.903 69.7439 160.393C69.996 159.883 70.2042 159.355 70.3713 158.81C70.5414 158.267 70.6645 157.713 70.7437 157.15C70.8229 156.587 70.858 156.021 70.8463 155.453C70.8375 154.884 70.7818 154.318 70.6821 153.758C70.5824 153.198 70.4388 152.65 70.2511 152.113C70.0635 151.574 69.8348 151.055 69.565 150.556V150.565ZM93.5137 173.323C92.9508 172.807 92.3439 172.347 91.69 171.945C91.0391 171.541 90.356 171.203 89.6405 170.931C88.9251 170.658 88.1921 170.453 87.4386 170.318C86.6851 170.183 85.9257 170.119 85.1575 170.127C84.3922 170.136 83.6358 170.218 82.8852 170.368C82.1346 170.52 81.4045 170.74 80.695 171.03C79.9854 171.321 79.311 171.673 78.6689 172.089C78.0268 172.508 77.4287 172.98 76.8745 173.511C72.6554 177.352 68.6502 181.41 64.865 185.682C63.4723 187.617 62.3757 189.704 61.5723 191.947C61.499 192.575 61.4756 193.205 61.499 193.836C61.5225 194.466 61.5958 195.091 61.716 195.709C61.8362 196.328 62.0033 196.935 62.2174 197.53C62.4314 198.122 62.6894 198.697 62.9914 199.251C63.2934 199.805 63.6336 200.333 64.0176 200.834C64.4017 201.336 64.821 201.805 65.2755 202.242C65.7299 202.679 66.2167 203.077 66.7327 203.441C67.2487 203.802 67.7912 204.124 68.357 204.403C68.8701 204.681 69.4008 204.922 69.952 205.118C70.5033 205.315 71.0662 205.467 71.6409 205.573C72.2156 205.681 72.7961 205.746 73.3796 205.763C73.963 205.778 74.5465 205.751 75.1271 205.675C75.7076 205.602 76.2764 205.482 76.8394 205.317C77.3994 205.156 77.9447 204.948 78.4754 204.699C79.0032 204.45 79.5104 204.159 79.9913 203.831C80.4751 203.503 80.9324 203.139 81.3576 202.737C85.782 198.735 90.051 194.545 94.0679 190.133C94.3406 189.851 94.6015 189.558 94.8478 189.253C95.0912 188.945 95.3199 188.628 95.5339 188.3C95.7479 187.969 95.9444 187.632 96.1203 187.283C96.2992 186.931 96.4604 186.576 96.6041 186.21C96.7448 185.843 96.868 185.471 96.9735 185.095C97.0791 184.717 97.1641 184.333 97.2315 183.946C97.296 183.559 97.343 183.172 97.3693 182.779C97.3957 182.389 97.4045 181.996 97.3899 181.606C97.3781 181.213 97.3459 180.823 97.2931 180.433C97.2403 180.046 97.17 179.659 97.0761 179.278C96.9852 178.897 96.8768 178.522 96.7448 178.149C96.6158 177.78 96.4692 177.416 96.3021 177.062C96.1379 176.707 95.9532 176.361 95.7509 176.024C95.5515 175.687 95.3345 175.361 95.1 175.047C94.8654 174.734 94.6162 174.429 94.3523 174.141C94.0855 173.851 93.8069 173.575 93.5137 173.314V173.323ZM124.059 210.27C123.59 203.749 121.517 199.838 116.765 197.703C116.225 197.439 115.668 197.222 115.093 197.046C114.519 196.87 113.935 196.741 113.34 196.659C112.745 196.574 112.147 196.539 111.546 196.551C110.945 196.562 110.349 196.621 109.757 196.727C109.168 196.835 108.587 196.985 108.021 197.184C107.453 197.38 106.904 197.621 106.376 197.905C105.846 198.19 105.341 198.515 104.864 198.879C104.386 199.242 103.94 199.644 103.527 200.078C99.5273 203.764 95.701 207.666 91.951 211.592C91.6607 211.865 91.3851 212.152 91.1212 212.454C90.8603 212.756 90.614 213.07 90.3853 213.395C90.1536 213.721 89.9425 214.058 89.7461 214.404C89.5497 214.753 89.3708 215.107 89.2095 215.474C89.0483 215.838 88.9046 216.21 88.7815 216.588C88.6583 216.969 88.5528 217.353 88.4677 217.743C88.3827 218.133 88.3182 218.526 88.2713 218.922C88.2273 219.318 88.2009 219.717 88.1951 220.115C88.1892 220.514 88.2009 220.913 88.2361 221.309C88.2684 221.707 88.3241 222.103 88.3974 222.493C88.4707 222.886 88.5616 223.273 88.6759 223.657C88.7873 224.038 88.9163 224.417 89.0659 224.786C89.2154 225.156 89.3855 225.516 89.5702 225.871C89.7578 226.223 89.9601 226.566 90.18 226.897C90.3999 227.231 90.6374 227.551 90.8896 227.862C91.1417 228.17 91.4085 228.466 91.69 228.747C91.9744 229.029 92.2706 229.296 92.5814 229.548C92.8922 229.8 93.2117 230.034 93.546 230.254C93.8802 230.474 94.2233 230.676 94.5781 230.861C94.9299 231.046 95.2935 231.216 95.6629 231.366C96.0323 231.515 96.4106 231.647 96.7917 231.758C97.1758 231.87 97.5629 231.964 97.9557 232.037C98.3486 232.113 98.7445 232.166 99.1403 232.201C99.539 232.236 99.9378 232.251 100.337 232.248C100.735 232.242 101.134 232.219 101.53 232.175C101.929 232.131 102.322 232.066 102.711 231.984C103.104 231.902 103.488 231.799 103.87 231.676C104.251 231.556 104.623 231.418 104.99 231.26C105.356 231.102 105.714 230.926 106.063 230.732C106.415 230.539 106.752 230.328 107.08 230.099C107.409 229.873 107.725 229.63 108.03 229.372C108.335 229.114 108.625 228.841 108.904 228.554C112.847 224.988 116.589 221.221 120.125 217.251C121.708 215.072 123.019 212.741 124.059 210.258V210.27ZM303.455 37.9257C301.062 34.4659 298.412 31.2201 295.495 28.1914C292.604 25.0746 289.49 22.1954 286.159 19.5566C281.808 16.1965 277.125 13.3876 272.115 11.13C265.353 7.96632 258.34 5.52102 251.077 3.79699C243.815 2.07296 236.453 1.10247 228.991 0.888429C221.4 1.07608 213.94 2.15799 206.607 4.13124C199.277 6.10449 192.282 8.91629 185.623 12.5637C174.907 18.9203 165.395 26.743 157.095 36.0345C144.543 48.6715 131.806 61.1326 119.277 73.7872C118.855 74.1771 118.456 74.5905 118.081 75.0274C117.706 75.4614 117.354 75.9158 117.029 76.3908C116.703 76.8658 116.407 77.3554 116.137 77.8627C115.865 78.3699 115.624 78.8918 115.41 79.4254C115.199 79.9591 115.014 80.5044 114.862 81.0586C114.712 81.6127 114.589 82.1757 114.501 82.7445C114.41 83.3104 114.352 83.8821 114.325 84.4568C114.299 85.0315 114.305 85.6061 114.343 86.1808C114.381 86.7526 114.451 87.3243 114.551 87.8902C114.654 88.4561 114.786 89.0131 114.947 89.5673C115.111 90.1185 115.304 90.658 115.527 91.1887C115.75 91.7194 116.002 92.2325 116.284 92.7368C116.565 93.2382 116.873 93.722 117.207 94.1911C117.542 94.6573 117.902 95.1059 118.286 95.5339C118.67 95.962 119.078 96.3666 119.509 96.7478C119.937 97.1319 120.386 97.4867 120.855 97.8209C121.582 98.3545 122.347 98.8207 123.154 99.2195C123.96 99.6212 124.795 99.9466 125.66 100.199C126.525 100.451 127.405 100.627 128.299 100.724C129.193 100.82 130.091 100.838 130.988 100.779C131.888 100.718 132.773 100.58 133.647 100.363C134.521 100.146 135.368 99.8557 136.192 99.4892C137.013 99.1257 137.799 98.6888 138.544 98.1845C139.291 97.6831 139.986 97.1172 140.634 96.4898C146.489 90.9864 176.047 62.2028 184.535 53.6647C229.102 97.8121 261.721 130.404 269.57 138.453C275.029 144.047 280.06 149.281 280.06 149.281C283.576 152.972 287.15 156.749 290.891 160.651C293.425 157.458 296.239 154.268 298.981 150.949C301.743 147.615 304.311 144.138 306.692 140.517C310.729 134.081 313.966 127.264 316.4 120.066C318.836 112.868 320.402 105.485 321.103 97.9206C321.355 93.8011 321.323 89.6816 321.006 85.5651C320.689 81.4485 320.088 77.373 319.209 73.3415C318.326 69.3071 317.171 65.3547 315.74 61.4815C314.309 57.6083 312.62 53.8524 310.671 50.2138C308.533 45.9594 306.129 41.8634 303.455 37.9257ZM184.518 72.5968C172.2 84.577 153.104 103.289 148.34 107.47C147.656 108.039 146.95 108.576 146.217 109.077C145.484 109.581 144.727 110.05 143.953 110.484C143.176 110.918 142.382 111.317 141.57 111.678C140.757 112.038 139.93 112.361 139.089 112.648C138.248 112.933 137.394 113.179 136.529 113.384C135.664 113.592 134.791 113.759 133.911 113.885C133.031 114.012 132.146 114.099 131.261 114.143C130.372 114.19 129.484 114.196 128.595 114.158C127.707 114.123 126.821 114.047 125.942 113.929C125.059 113.812 124.186 113.654 123.318 113.457C122.453 113.261 121.597 113.023 120.749 112.748C119.905 112.472 119.075 112.156 118.257 111.804C117.442 111.452 116.644 111.062 115.862 110.637C115.082 110.212 114.322 109.751 113.583 109.256C112.847 108.76 112.132 108.233 111.443 107.67C110.754 107.11 110.091 106.517 109.455 105.896C108.819 105.277 108.212 104.626 107.634 103.949C107.057 103.272 106.514 102.568 106.004 101.841C105.491 101.114 105.016 100.363 104.573 99.5919C104.134 98.8178 103.729 98.0291 103.359 97.2169C102.993 96.4077 102.665 95.5838 102.371 94.7423C102.081 93.9008 101.829 93.0505 101.618 92.1856C101.407 91.3206 101.234 90.4498 101.105 89.5702C100.973 88.6906 100.885 87.8052 100.835 86.9197C100.788 86.0313 100.779 85.1429 100.814 84.2515C100.847 83.3631 100.923 82.4777 101.04 81.5981C101.158 80.7155 101.313 79.8418 101.512 78.9739C101.709 78.106 101.946 77.2499 102.225 76.4055C102.503 75.561 102.817 74.7284 103.172 73.9133C103.527 73.0982 103.919 72.3006 104.348 71.5207C104.776 70.7437 105.242 69.9844 105.74 69.2484C106.239 68.5125 106.772 67.8029 107.338 67.1139C111.094 62.6514 115.363 58.614 119.509 54.471C129.8 44.1298 140.165 33.8179 150.75 23.2656C149.307 21.9696 147.826 20.7206 146.305 19.5243C144.783 18.3251 143.22 17.1787 141.622 16.0821C140.024 14.9856 138.391 13.9447 136.726 12.9595C135.057 11.9715 133.36 11.0391 131.63 10.1653C129.903 9.28866 128.147 8.47063 126.364 7.71123C124.581 6.95184 122.775 6.25402 120.946 5.61191C119.116 4.97273 117.269 4.39512 115.401 3.87615C113.534 3.35719 111.651 2.90273 109.754 2.50984C107.857 2.11401 105.948 1.78269 104.031 1.51588C102.11 1.24907 100.187 1.04383 98.2519 0.906022C96.3197 0.765285 94.3845 0.689052 92.4465 0.674392C90.5114 0.662663 88.5733 0.71544 86.6411 0.829789C84.706 0.944137 82.7767 1.12299 80.8562 1.36635C78.9328 1.60971 77.0211 1.91464 75.1183 2.28407C73.2154 2.6535 71.3272 3.08451 69.4536 3.57709C67.58 4.0726 65.7241 4.62675 63.8886 5.24248C26.8045 17.8443 5.304 44.3263 0.935297 83.3368C0.559998 86.4652 0.360622 89.6025 0.334233 92.7515C0.304913 95.9034 0.451513 99.0436 0.771104 102.178C1.08776 105.312 1.57741 108.417 2.23711 111.496C2.89682 114.577 3.72365 117.612 4.7176 120.6C5.71155 123.587 6.86677 126.514 8.18324 129.375C9.49972 132.237 10.9687 135.016 12.5901 137.717C14.2115 140.417 15.9765 143.021 17.8853 145.525C19.794 148.032 21.8347 150.424 24.0073 152.705C30.0297 147.205 35.5595 142.018 41.2095 136.999C41.576 136.65 41.9484 136.312 42.3324 135.987C42.7195 135.664 43.1124 135.351 43.5141 135.049C43.9187 134.747 44.3292 134.456 44.7514 134.181C45.1706 133.902 45.5987 133.638 46.0356 133.389C46.4725 133.137 46.9152 132.9 47.3667 132.674C47.8153 132.448 48.2727 132.237 48.736 132.04C49.1992 131.844 49.6684 131.659 50.1433 131.489C50.6154 131.319 51.0962 131.167 51.58 131.026C52.0609 130.885 52.5505 130.759 53.0402 130.645C53.5298 130.533 54.0253 130.437 54.5208 130.355C55.0193 130.272 55.5177 130.208 56.0191 130.155C56.5175 130.102 57.0219 130.064 57.5232 130.044C58.0275 130.02 58.5289 130.014 59.0332 130.023C59.5375 130.029 60.0389 130.053 60.5403 130.091C61.0446 130.129 61.543 130.182 62.0444 130.249C62.5428 130.319 63.0384 130.401 63.5309 130.498C64.0264 130.595 64.5161 130.709 65.0028 130.835C65.4924 130.964 65.9733 131.105 66.4512 131.261C66.9321 131.416 67.4041 131.586 67.8732 131.771C68.3424 131.955 68.8056 132.155 69.2601 132.366C69.7175 132.577 70.169 132.803 70.6118 133.043C71.0545 133.281 71.4884 133.533 71.9165 133.797C72.3446 134.064 72.7668 134.342 73.1773 134.629C73.5877 134.92 73.9924 135.225 74.3853 135.538C74.7781 135.852 75.1622 136.178 75.5346 136.515C75.9099 136.852 76.2735 137.201 76.6253 137.559C76.9801 137.919 77.3202 138.286 77.6515 138.667C77.9828 139.045 78.3024 139.435 78.6103 139.834C78.9182 140.233 79.2143 140.64 79.4958 141.056C79.7802 141.473 80.0499 141.895 80.3079 142.329C80.5659 142.76 80.8122 143.2 81.0409 143.648C81.2726 144.094 81.4925 144.548 81.6977 145.009C83.1109 148.706 84.1958 152.494 84.9522 156.379C100.949 157.784 109.663 166.738 111.094 182.861C127.499 184.348 136.353 193.214 137.67 209.293C138.133 209.446 138.608 209.557 139.092 209.628C139.576 209.639 140.062 209.669 140.546 209.71C141.033 209.751 141.517 209.806 141.998 209.874C142.478 209.941 142.959 210.023 143.434 210.12C143.912 210.217 144.387 210.325 144.856 210.449C145.328 210.572 145.795 210.707 146.258 210.856C146.721 211.006 147.178 211.17 147.633 211.346C148.087 211.522 148.536 211.709 148.979 211.909C149.421 212.111 149.858 212.325 150.289 212.551C150.72 212.777 151.145 213.014 151.562 213.263C151.978 213.515 152.389 213.776 152.79 214.049C153.195 214.325 153.588 214.609 153.975 214.905C154.362 215.201 154.737 215.506 155.107 215.823C155.476 216.142 155.837 216.468 156.186 216.808C156.535 217.145 156.875 217.491 157.206 217.849C157.537 218.207 157.857 218.573 158.168 218.948C158.476 219.324 158.775 219.708 159.062 220.101C159.349 220.494 159.625 220.892 159.892 221.3C160.156 221.71 160.408 222.124 160.651 222.546C160.891 222.968 161.12 223.399 161.337 223.833C161.554 224.27 161.759 224.71 161.95 225.158C162.141 225.604 162.319 226.059 162.487 226.516C162.654 226.973 162.806 227.434 162.944 227.9C163.085 228.366 163.211 228.835 163.325 229.31C163.436 229.782 163.536 230.26 163.621 230.738C163.709 231.216 163.78 231.697 163.838 232.181C163.897 232.664 163.941 233.148 163.973 233.635C164.005 234.119 164.02 234.605 164.023 235.092C164.029 235.579 164.017 236.066 163.994 236.549C163.967 237.036 163.929 237.523 163.876 238.007C163.826 238.49 163.759 238.971 163.68 239.452C163.601 239.93 163.507 240.408 163.401 240.883C163.296 241.358 163.176 241.83 163.041 242.296C162.92 242.856 162.923 243.413 163.047 243.967C163.173 244.524 163.407 245.032 163.753 245.483C168.488 250.333 173.209 255.223 178.281 259.709C178.791 260.114 179.331 260.472 179.903 260.782C180.471 261.096 181.064 261.357 181.679 261.568C182.295 261.776 182.923 261.935 183.565 262.037C184.207 262.143 184.855 262.19 185.506 262.184C186.154 262.178 186.799 262.117 187.441 261.999C188.08 261.885 188.705 261.715 189.314 261.492C189.927 261.269 190.514 260.996 191.08 260.671C191.642 260.349 192.176 259.979 192.677 259.566C193.035 259.293 193.375 259 193.701 258.686C194.023 258.375 194.328 258.044 194.616 257.698C194.903 257.352 195.17 256.988 195.416 256.613C195.665 256.235 195.888 255.845 196.09 255.443C196.293 255.042 196.474 254.628 196.63 254.206C196.785 253.784 196.917 253.356 197.026 252.919C197.134 252.479 197.216 252.039 197.275 251.591C197.334 251.145 197.369 250.696 197.375 250.248C197.383 249.796 197.366 249.348 197.325 248.899C197.281 248.45 197.213 248.005 197.119 247.565C197.029 247.125 196.911 246.691 196.771 246.263C196.627 245.835 196.463 245.416 196.275 245.008C196.087 244.598 195.876 244.202 195.642 243.815C195.41 243.431 195.155 243.058 194.879 242.704C194.607 242.346 194.311 242.006 194 241.683C193.686 241.358 193.355 241.053 193.009 240.766C181.073 228.823 169.078 216.937 157.15 204.983C156.62 204.45 156.145 203.869 155.722 203.245L134.97 182.495C134.676 182.19 134.415 181.861 134.184 181.504C133.955 181.149 133.762 180.774 133.603 180.381C133.448 179.988 133.331 179.583 133.251 179.167C133.172 178.75 133.137 178.331 133.14 177.909C133.143 177.484 133.187 177.067 133.275 176.651C133.36 176.238 133.483 175.833 133.647 175.443C133.811 175.053 134.011 174.684 134.245 174.332C134.483 173.98 134.75 173.655 135.049 173.356C135.348 173.056 135.673 172.787 136.025 172.552C136.377 172.315 136.749 172.115 137.139 171.951C137.529 171.79 137.931 171.664 138.347 171.579C138.761 171.494 139.18 171.45 139.602 171.444C140.027 171.441 140.447 171.479 140.863 171.558C141.279 171.634 141.684 171.752 142.077 171.91C142.47 172.065 142.845 172.259 143.2 172.491C143.554 172.719 143.886 172.98 144.191 173.276L165.055 194.141C165.618 194.534 166.149 194.97 166.65 195.442C170.406 199.014 174.182 202.564 177.868 206.203C186.473 214.709 194.95 223.346 203.649 231.755C203.939 232.055 204.244 232.339 204.564 232.606C204.883 232.873 205.215 233.122 205.561 233.353C205.907 233.585 206.264 233.799 206.631 233.996C207 234.189 207.379 234.365 207.766 234.52C208.15 234.676 208.546 234.811 208.944 234.925C209.346 235.036 209.751 235.13 210.161 235.204C210.572 235.274 210.985 235.324 211.401 235.353C211.815 235.379 212.231 235.388 212.647 235.374C213.064 235.356 213.477 235.321 213.891 235.262C214.304 235.204 214.712 235.124 215.116 235.022C215.521 234.922 215.917 234.799 216.31 234.655C216.7 234.514 217.084 234.35 217.456 234.169C217.831 233.984 218.195 233.781 218.547 233.562C218.901 233.342 219.242 233.101 219.57 232.846C219.898 232.588 220.212 232.315 220.511 232.025C220.81 231.738 221.095 231.433 221.361 231.113C221.857 230.506 222.288 229.858 222.66 229.166C223.03 228.477 223.332 227.759 223.563 227.011C223.798 226.264 223.956 225.499 224.044 224.722C224.129 223.942 224.141 223.165 224.079 222.382C224.018 221.602 223.883 220.834 223.672 220.08C223.464 219.327 223.185 218.597 222.836 217.896C222.487 217.195 222.074 216.532 221.599 215.911C221.124 215.289 220.593 214.718 220.01 214.196C207.839 201.943 195.545 189.772 183.31 177.551C177.478 171.728 171.573 165.976 165.894 160C165.571 159.704 165.284 159.382 165.032 159.027C164.776 158.672 164.559 158.297 164.384 157.898C164.208 157.499 164.073 157.089 163.982 156.661C163.888 156.236 163.841 155.804 163.838 155.368C163.835 154.934 163.876 154.503 163.961 154.075C164.046 153.647 164.175 153.233 164.345 152.831C164.515 152.43 164.727 152.052 164.976 151.694C165.225 151.336 165.506 151.008 165.823 150.706C166.131 150.401 166.462 150.125 166.823 149.882C167.184 149.638 167.565 149.43 167.964 149.263C168.365 149.093 168.776 148.961 169.201 148.873C169.626 148.782 170.057 148.732 170.491 148.727C170.925 148.721 171.356 148.753 171.784 148.829C172.212 148.905 172.628 149.023 173.033 149.181C173.441 149.336 173.825 149.53 174.194 149.762C174.561 149.993 174.904 150.257 175.22 150.556C176.035 151.233 176.806 151.958 177.534 152.729C194.874 169.99 212.164 187.294 229.597 204.455C231.5 206.332 233.737 207.637 236.309 208.367C236.925 208.522 237.549 208.628 238.182 208.68C238.813 208.736 239.446 208.736 240.079 208.686C240.713 208.637 241.337 208.534 241.953 208.378C242.569 208.226 243.167 208.021 243.75 207.769C244.334 207.516 244.891 207.217 245.424 206.871C245.955 206.528 246.457 206.141 246.926 205.713C247.395 205.285 247.826 204.822 248.219 204.324C248.612 203.825 248.96 203.297 249.268 202.743C249.588 202.177 249.861 201.591 250.086 200.981C250.312 200.371 250.485 199.747 250.608 199.11C250.731 198.471 250.802 197.826 250.819 197.178C250.837 196.527 250.802 195.882 250.714 195.237C250.626 194.595 250.488 193.962 250.295 193.34C250.104 192.719 249.864 192.118 249.573 191.537C249.283 190.956 248.949 190.402 248.568 189.875C248.189 189.347 247.767 188.854 247.307 188.397C234.025 174.989 220.625 161.683 207.27 148.343C202.488 143.56 197.589 138.849 192.886 133.967C192.543 133.674 192.232 133.348 191.953 132.99C191.675 132.633 191.434 132.252 191.232 131.844C191.03 131.439 190.868 131.017 190.751 130.58C190.634 130.143 190.564 129.698 190.534 129.246C190.505 128.795 190.522 128.343 190.587 127.895C190.649 127.446 190.754 127.006 190.907 126.581C191.056 126.153 191.247 125.745 191.478 125.355C191.713 124.966 191.98 124.605 192.285 124.271C192.616 123.939 192.977 123.646 193.367 123.385C193.756 123.127 194.167 122.91 194.601 122.734C195.035 122.555 195.48 122.423 195.941 122.336C196.398 122.248 196.864 122.207 197.331 122.212C197.8 122.215 198.26 122.265 198.72 122.362C199.178 122.459 199.621 122.599 200.049 122.784C200.48 122.969 200.887 123.195 201.271 123.461C201.655 123.728 202.01 124.03 202.336 124.364C202.937 124.883 203.459 125.499 204.021 126.062C221.247 143.238 238.484 160.411 255.736 177.575C256.147 178.053 256.593 178.495 257.07 178.909C257.545 179.322 258.05 179.7 258.58 180.041C259.111 180.384 259.662 180.683 260.237 180.947C260.812 181.207 261.401 181.424 262.008 181.603C262.612 181.779 263.228 181.911 263.852 181.999C264.477 182.087 265.107 182.131 265.737 182.128C266.368 182.125 266.995 182.078 267.62 181.987C268.244 181.894 268.857 181.759 269.461 181.577L269.801 181.46C270.288 181.263 270.757 181.037 271.215 180.779C271.669 180.524 272.106 180.237 272.525 179.923C272.944 179.61 273.34 179.269 273.716 178.906C274.091 178.539 274.443 178.152 274.768 177.742C275.091 177.331 275.39 176.903 275.659 176.452C275.926 176.003 276.167 175.54 276.375 175.059C276.586 174.581 276.762 174.089 276.908 173.587C277.055 173.083 277.167 172.573 277.246 172.057C277.325 171.538 277.372 171.019 277.383 170.494C277.395 169.972 277.375 169.45 277.319 168.928C277.263 168.409 277.175 167.893 277.055 167.386C276.932 166.876 276.779 166.377 276.592 165.888C276.404 165.398 276.187 164.923 275.941 164.463C275.692 164.002 275.416 163.557 275.111 163.132C274.806 162.706 274.475 162.305 274.117 161.921C273.759 161.54 273.378 161.182 272.974 160.848C253.467 141.326 209.428 97.3635 184.518 72.5968Z" fill="#36BBC8"/>
</g>
<path d="M418.723 124.189V199.384H376V11.9801H418.723V86.7209H479.158V11.9801H521.848V199.384H479.158V124.189H418.723Z" fill="#36BBC8"/>
<path d="M667.023 146.669H582.517C582.517 154.844 585.161 160.91 590.465 164.868C595.761 168.809 601.511 170.772 607.723 170.772C614.227 170.772 619.377 169.912 623.164 168.177C626.944 166.425 631.258 162.97 636.108 157.796L665.206 172.361C653.074 192.652 632.929 202.79 604.771 202.79C587.205 202.79 572.137 196.78 559.55 184.753C546.98 172.71 540.703 158.21 540.703 141.252C540.703 124.278 546.98 109.737 559.55 97.6206C572.137 85.4882 587.205 79.422 604.771 79.422C623.237 79.422 638.265 84.7664 649.862 95.4472C661.451 106.136 667.25 121.391 667.25 141.219C667.25 143.944 667.169 145.761 667.023 146.669ZM583.653 124.416H627.933C627.025 118.366 624.632 113.711 620.764 110.467C616.912 107.206 611.956 105.568 605.906 105.568C599.24 105.568 593.944 107.312 590.011 110.791C586.07 114.278 583.953 118.82 583.653 124.416Z" fill="#36BBC8"/>
<path d="M686.089 199.384V4H726.314V199.384H686.089Z" fill="#36BBC8"/>
<path d="M873.521 97.2638C884.421 109.161 889.871 123.751 889.871 141.025C889.871 158.283 884.421 172.897 873.521 184.851C862.622 196.813 848.754 202.79 831.934 202.79C816.493 202.79 803.776 197.948 793.785 188.257V258.456H753.56V82.8282H793.331V96.0311H793.785C803.776 84.9611 816.493 79.422 831.934 79.422C848.754 79.422 862.622 85.3747 873.521 97.2638ZM839.298 160.78C844.529 155.614 847.148 149.021 847.148 140.992C847.148 132.972 844.65 126.427 839.654 121.366C834.659 116.29 828.074 113.743 819.899 113.743C812.024 113.743 805.544 116.322 800.467 121.464C795.407 126.613 792.877 133.126 792.877 140.992C792.877 149.021 795.48 155.614 800.695 160.78C805.925 165.93 812.324 168.501 819.899 168.501C827.619 168.501 834.083 165.93 839.298 160.78Z" fill="#36BBC8"/>
<path d="M1013.46 11.9801V161.916H1077.98V199.384H970.736V11.9801H1013.46Z" fill="#36BBC8"/>
<path d="M1102.95 17.8841C1107.64 13.1965 1113.24 10.8447 1119.75 10.8447C1126.28 10.8447 1131.89 13.1965 1136.59 17.8841C1141.28 22.5797 1143.63 28.1836 1143.63 34.6878C1143.63 41.2 1141.28 46.8039 1136.59 51.4915C1131.89 56.1871 1126.28 58.5308 1119.75 58.5308C1113.24 58.5308 1107.64 56.1871 1102.95 51.4915C1098.25 46.8039 1095.91 41.2 1095.91 34.6878C1095.91 28.1836 1098.25 22.5797 1102.95 17.8841ZM1099.09 82.8281V199.384H1139.31V82.8281H1099.09Z" fill="#36BBC8"/>
<path d="M1167.69 199.384V82.8282H1207.92V95.1228H1208.37C1218.82 84.661 1229.95 79.422 1241.75 79.422C1247.5 79.422 1253.21 80.1843 1258.88 81.6928C1264.57 83.2093 1270.03 85.5693 1275.26 88.7646C1280.5 91.9437 1284.74 96.4528 1287.98 102.292C1291.24 108.115 1292.88 114.878 1292.88 122.599V199.384H1252.65V133.499C1252.65 127.449 1250.72 122.145 1246.85 117.603C1242.99 113.062 1237.97 110.791 1231.76 110.791C1225.7 110.791 1220.21 113.143 1215.28 117.83C1210.37 122.526 1207.92 127.749 1207.92 133.499V199.384H1167.69Z" fill="#36BBC8"/>
<path d="M1435.77 146.669H1351.27C1351.27 154.844 1353.91 160.91 1359.22 164.868C1364.51 168.809 1370.26 170.772 1376.47 170.772C1382.98 170.772 1388.13 169.912 1391.91 168.177C1395.69 166.425 1400.01 162.97 1404.86 157.796L1433.96 172.361C1421.82 192.652 1401.68 202.79 1373.52 202.79C1355.96 202.79 1340.89 196.78 1328.3 184.753C1315.73 172.71 1309.45 158.21 1309.45 141.252C1309.45 124.278 1315.73 109.737 1328.3 97.6206C1340.89 85.4882 1355.96 79.422 1373.52 79.422C1391.99 79.422 1407.02 84.7664 1418.61 95.4472C1430.2 106.136 1436 121.391 1436 141.219C1436 143.944 1435.92 145.761 1435.77 146.669ZM1352.4 124.416H1396.68C1395.77 118.366 1393.38 113.711 1389.51 110.467C1385.66 107.206 1380.71 105.568 1374.66 105.568C1367.99 105.568 1362.69 107.312 1358.76 110.791C1354.82 114.278 1352.7 118.82 1352.4 124.416Z" fill="#36BBC8"/>
</svg>
